<?xml version="1.0" encoding="utf-8"?>
<!-- Generator: Adobe Illustrator 19.1.1, SVG Export Plug-In . SVG Version: 6.00 Build 0)  -->
<svg version="1.1" id="_x31_0" xmlns="http://www.w3.org/2000/svg" xmlns:xlink="http://www.w3.org/1999/xlink" x="0px" y="0px"
	 viewBox="0 0 512 512" style="enable-background:new 0 0 512 512;" xml:space="preserve">
<style type="text/css">
	.st0{fill:#374149;}
</style>
<g>
	<path class="st0" d="M16.59,24.154C7.43,24.154,0,31.58,0,40.744v23.41v327.41c0,9.164,7.43,16.59,16.59,16.59h201.973v34.121
		h-77.246l-14.864,31.977l-6.324,13.434h0.078l-0.078,0.16h271.742l-21.188-45.57h-77.242v-34.121H495.41
		c5.726,0,10.777-2.902,13.758-7.313c1.789-2.648,2.832-5.839,2.832-9.277V64.154v-23.41c0-9.164-7.426-16.59-16.59-16.59H472H40
		H16.59z M40.004,64.154h129.617l18.829,0.023l-13.844,92.672l-2.653,17.762l-0.734,4.645l0.043-0.004l-0.023,0.164l20.602-2.578
		l48.934-6.121l29.863-3.641l-49.894,83.161l-5.02,8.367l7.637,4.847l72.504,46.039l6.293-8.89l-59.996-47.23l63.442-95.406
		l8.527-12.825l5.313-7.82l-0.122,0.008l0.114-0.168l-25.668,1.446l-58.531,3.304l-21.805,1.168l26.848-78.922h231.726v304h-432
		V64.154z"/>
</g>
</svg>
